<svg id="svg" version="1.1" xmlns="http://www.w3.org/2000/svg" xmlns:xlink="http://www.w3.org/1999/xlink" width="400" height="100.22779043280183" viewBox="0, 0, 400,100.22779043280183"><g id="svgg"><path id="path0" d="M39.000 17.296 L 38.583 17.739 38.538 27.006 L 38.492 36.272 38.876 36.719 C 39.088 36.965,39.352 37.167,39.464 37.167 C 39.575 37.167,39.667 37.242,39.667 37.333 C 39.667 37.441,41.639 37.500,45.250 37.500 C 48.861 37.500,50.833 37.441,50.833 37.333 C 50.833 37.242,50.929 37.167,51.046 37.167 C 51.342 37.167,51.744 36.662,51.974 36.004 C 52.247 35.219,52.246 18.946,51.972 18.150 C 51.511 16.809,51.635 16.832,45.167 16.844 L 39.417 16.854 39.000 17.296 M23.500 23.667 C 23.500 23.758,23.420 23.833,23.323 23.833 C 23.037 23.833,16.000 30.945,16.000 31.235 C 16.000 31.381,15.925 31.500,15.833 31.500 C 15.742 31.500,15.667 31.875,15.667 32.333 C 15.667 32.792,15.742 33.167,15.833 33.167 C 15.925 33.167,16.000 33.284,16.000 33.428 C 16.000 33.766,27.904 45.667,28.243 45.667 C 28.384 45.667,28.500 45.742,28.500 45.833 C 28.500 45.925,28.833 46.000,29.240 46.000 C 29.647 46.000,30.027 45.925,30.083 45.833 C 30.140 45.742,30.298 45.667,30.435 45.667 C 30.572 45.667,32.368 43.978,34.426 41.913 L 38.167 38.160 38.167 37.168 L 38.167 36.176 31.820 29.838 L 25.474 23.500 24.487 23.500 C 23.940 23.500,23.500 23.574,23.500 23.667 M63.808 24.742 C 63.134 25.425,62.508 26.064,62.417 26.163 C 62.325 26.262,61.524 27.046,60.637 27.905 C 59.749 28.765,59.068 29.512,59.123 29.567 C 59.177 29.622,59.137 29.667,59.032 29.667 C 58.928 29.667,58.500 30.023,58.082 30.458 C 57.663 30.894,57.245 31.325,57.152 31.417 C 57.060 31.508,55.937 32.625,54.658 33.898 L 52.333 36.213 52.333 37.184 L 52.333 38.155 56.079 41.911 C 58.139 43.976,59.939 45.667,60.079 45.667 C 60.219 45.667,60.333 45.742,60.333 45.833 C 60.333 45.925,60.708 46.000,61.167 46.000 C 61.625 46.000,62.000 45.925,62.000 45.833 C 62.000 45.742,62.113 45.667,62.252 45.667 C 62.715 45.667,74.500 33.718,74.500 33.248 C 74.500 33.020,74.575 32.833,74.667 32.833 C 74.758 32.833,74.833 32.571,74.833 32.250 C 74.833 31.929,74.758 31.667,74.667 31.667 C 74.575 31.667,74.500 31.483,74.500 31.259 C 74.500 31.035,74.350 30.748,74.168 30.620 C 73.985 30.491,73.885 30.337,73.946 30.277 C 74.006 30.216,73.970 30.167,73.865 30.167 C 73.761 30.167,73.333 29.810,72.915 29.375 C 72.078 28.504,72.105 28.531,71.310 27.741 C 71.002 27.435,70.664 27.087,70.560 26.967 C 70.455 26.848,70.117 26.520,69.810 26.238 C 69.502 25.957,69.091 25.545,68.896 25.322 C 68.357 24.704,67.342 23.833,67.161 23.833 C 67.072 23.833,67.000 23.758,67.000 23.667 C 67.000 23.574,66.561 23.500,66.016 23.500 L 65.033 23.500 63.808 24.742 M9.917 46.500 C 9.973 46.592,9.905 46.667,9.764 46.667 C 9.084 46.667,9.000 47.382,9.000 53.158 C 9.000 56.719,9.059 58.667,9.167 58.667 C 9.258 58.667,9.333 58.817,9.333 59.000 C 9.333 59.185,9.444 59.333,9.583 59.333 C 9.721 59.333,9.833 59.408,9.833 59.500 C 9.833 59.592,9.983 59.667,10.167 59.667 C 10.350 59.667,10.500 59.743,10.500 59.836 C 10.500 59.949,13.436 59.999,19.292 59.987 C 28.852 59.968,28.825 59.970,29.248 59.032 C 29.338 58.831,29.470 58.667,29.540 58.667 C 29.609 58.667,29.667 56.129,29.667 53.027 L 29.667 47.387 29.088 46.860 L 28.509 46.333 19.161 46.333 C 12.972 46.333,9.848 46.390,9.917 46.500 M61.375 46.884 L 60.833 47.417 60.833 53.042 C 60.833 56.135,60.891 58.667,60.960 58.667 C 61.030 58.667,61.162 58.831,61.252 59.032 C 61.675 59.970,61.648 59.968,71.208 59.987 C 77.064 59.999,80.000 59.949,80.000 59.836 C 80.000 59.743,80.133 59.667,80.297 59.667 C 80.460 59.667,80.703 59.507,80.838 59.313 C 80.973 59.118,81.177 58.861,81.292 58.741 C 81.557 58.464,81.598 47.500,81.333 47.500 C 81.242 47.500,81.167 47.367,81.167 47.204 C 81.167 46.326,81.246 46.333,71.206 46.342 L 61.917 46.351 61.375 46.884 " stroke="none" fill="#fc4c04" fill-rule="evenodd"></path><path id="path1" d="M210.000 50.083 L 210.000 66.000 212.914 66.000 L 215.827 66.000 215.881 57.958 C 215.917 52.580,216.000 49.654,216.129 49.124 C 216.313 48.374,217.249 47.167,217.647 47.167 C 217.734 47.167,217.837 47.073,217.875 46.958 C 217.926 46.806,218.528 46.750,220.117 46.750 L 222.289 46.750 222.811 47.333 C 223.596 48.209,223.667 48.304,223.667 48.493 C 223.667 48.589,223.742 48.667,223.833 48.667 C 223.925 48.667,224.000 48.892,224.000 49.167 C 224.000 49.442,224.075 49.667,224.167 49.667 C 224.276 49.667,224.333 52.500,224.333 57.833 L 224.333 66.000 227.333 66.000 L 230.333 66.000 230.333 57.500 C 230.333 52.825,230.269 49.000,230.190 49.000 C 230.111 49.000,230.006 48.346,229.956 47.547 C 229.905 46.719,229.787 46.068,229.683 46.033 C 229.582 46.000,229.500 45.828,229.500 45.653 C 229.500 45.477,229.425 45.333,229.333 45.333 C 229.242 45.333,229.167 45.237,229.167 45.120 C 229.167 45.003,229.017 44.799,228.833 44.667 C 228.650 44.535,228.500 44.331,228.500 44.215 C 228.500 43.913,227.968 43.333,227.691 43.333 C 227.562 43.333,227.334 43.196,227.186 43.029 C 227.038 42.862,226.673 42.618,226.375 42.488 C 226.077 42.358,225.833 42.195,225.833 42.126 C 225.833 42.057,225.500 42.000,225.093 42.000 C 224.686 42.000,224.307 41.925,224.250 41.833 C 224.192 41.739,223.387 41.667,222.407 41.667 C 221.358 41.667,220.667 41.733,220.667 41.833 C 220.667 41.925,220.404 42.000,220.083 42.000 C 219.762 42.000,219.500 42.075,219.500 42.167 C 219.500 42.258,219.350 42.333,219.167 42.333 C 218.983 42.333,218.833 42.408,218.833 42.500 C 218.833 42.592,218.683 42.667,218.500 42.667 C 218.317 42.667,218.167 42.742,218.167 42.833 C 218.167 42.925,218.089 43.000,217.993 43.000 C 217.599 43.000,216.394 44.234,216.258 44.778 C 216.131 45.283,215.701 45.760,215.534 45.580 C 215.469 45.511,215.510 45.421,215.625 45.380 C 215.786 45.322,215.833 44.041,215.833 39.736 L 215.833 34.167 212.917 34.167 L 210.000 34.167 210.000 50.083 M113.782 35.458 C 113.743 35.527,113.660 35.865,113.598 36.208 C 113.536 36.552,113.413 36.833,113.326 36.833 C 113.238 36.833,113.167 37.058,113.167 37.333 C 113.167 37.608,113.092 37.833,113.000 37.833 C 112.908 37.833,112.833 38.021,112.833 38.250 C 112.833 38.479,112.758 38.667,112.667 38.667 C 112.575 38.667,112.500 38.892,112.500 39.167 C 112.500 39.442,112.430 39.667,112.345 39.667 C 112.260 39.667,112.139 40.079,112.076 40.583 C 112.013 41.087,111.895 41.500,111.814 41.500 C 111.733 41.500,111.667 41.688,111.667 41.917 C 111.667 42.146,111.592 42.333,111.500 42.333 C 111.408 42.333,111.333 42.558,111.333 42.833 C 111.333 43.108,111.277 43.334,111.208 43.335 C 111.041 43.336,110.667 44.159,110.667 44.523 C 110.667 44.683,110.594 44.859,110.505 44.914 C 110.416 44.969,110.294 45.386,110.233 45.840 C 110.173 46.295,110.058 46.667,109.979 46.667 C 109.899 46.667,109.833 46.854,109.833 47.083 C 109.833 47.313,109.758 47.500,109.667 47.500 C 109.575 47.500,109.500 47.725,109.500 48.000 C 109.500 48.275,109.425 48.500,109.333 48.500 C 109.242 48.500,109.167 48.688,109.167 48.917 C 109.167 49.146,109.092 49.333,109.000 49.333 C 108.908 49.333,108.833 49.475,108.833 49.648 C 108.833 49.820,108.721 50.177,108.584 50.439 C 108.447 50.702,108.335 51.123,108.334 51.375 C 108.334 51.627,108.258 51.833,108.167 51.833 C 108.075 51.833,108.000 52.021,108.000 52.250 C 108.000 52.479,107.925 52.667,107.833 52.667 C 107.742 52.667,107.667 52.850,107.667 53.073 C 107.667 53.297,107.592 53.527,107.500 53.583 C 107.408 53.640,107.333 53.869,107.333 54.093 C 107.333 54.317,107.264 54.500,107.179 54.500 C 107.094 54.500,106.972 54.913,106.909 55.417 C 106.846 55.921,106.729 56.333,106.647 56.333 C 106.566 56.333,106.500 56.521,106.500 56.750 C 106.500 56.979,106.425 57.167,106.333 57.167 C 106.242 57.167,106.167 57.317,106.167 57.500 C 106.167 57.683,106.092 57.833,106.000 57.833 C 105.908 57.833,105.833 58.016,105.833 58.240 C 105.833 58.464,105.758 58.693,105.667 58.750 C 105.575 58.807,105.500 59.032,105.500 59.250 C 105.500 59.468,105.427 59.692,105.338 59.747 C 105.249 59.802,105.127 60.219,105.067 60.674 C 105.006 61.128,104.892 61.500,104.812 61.500 C 104.732 61.500,104.667 61.688,104.667 61.917 C 104.667 62.146,104.592 62.333,104.500 62.333 C 104.408 62.333,104.333 62.558,104.333 62.833 C 104.333 63.108,104.258 63.333,104.167 63.333 C 104.075 63.333,104.000 63.515,104.000 63.736 C 104.000 63.958,103.924 64.164,103.830 64.195 C 103.737 64.227,103.614 64.645,103.557 65.126 L 103.454 66.000 106.477 66.000 L 109.500 66.000 109.500 65.417 C 109.500 65.096,109.575 64.833,109.667 64.833 C 109.758 64.833,109.833 64.608,109.833 64.333 C 109.833 64.058,109.903 63.833,109.988 63.833 C 110.073 63.833,110.194 63.421,110.257 62.917 C 110.320 62.413,110.438 62.000,110.519 62.000 C 110.600 62.000,110.667 61.813,110.667 61.583 C 110.667 61.354,110.742 61.167,110.833 61.167 C 110.925 61.167,111.000 60.942,111.000 60.667 C 111.000 60.392,111.075 60.167,111.167 60.167 C 111.258 60.167,111.333 60.011,111.333 59.821 C 111.333 59.012,111.422 59.000,117.488 59.000 C 123.056 59.000,123.167 59.007,123.167 59.333 C 123.167 59.517,123.242 59.667,123.333 59.667 C 123.425 59.667,123.500 59.854,123.500 60.083 C 123.500 60.313,123.566 60.500,123.647 60.500 C 123.729 60.500,123.846 60.913,123.909 61.417 C 123.972 61.921,124.094 62.333,124.179 62.333 C 124.264 62.333,124.333 62.558,124.333 62.833 C 124.333 63.108,124.408 63.333,124.500 63.333 C 124.592 63.333,124.667 63.521,124.667 63.750 C 124.667 63.979,124.742 64.167,124.833 64.167 C 124.925 64.167,125.000 64.392,125.000 64.667 C 125.000 64.942,125.075 65.167,125.167 65.167 C 125.258 65.167,125.333 65.354,125.333 65.583 L 125.333 66.000 128.333 66.000 L 131.333 66.000 131.333 65.250 C 131.333 64.837,131.267 64.500,131.186 64.500 C 131.104 64.500,130.995 64.294,130.943 64.042 C 130.654 62.641,130.419 61.833,130.300 61.833 C 130.227 61.833,130.167 61.683,130.167 61.500 C 130.167 61.317,130.092 61.167,130.000 61.167 C 129.908 61.167,129.833 60.979,129.833 60.750 C 129.833 60.521,129.758 60.333,129.667 60.333 C 129.575 60.333,129.500 60.108,129.500 59.833 C 129.500 59.558,129.432 59.333,129.349 59.333 C 129.266 59.333,129.146 58.958,129.083 58.500 C 129.020 58.042,128.901 57.625,128.818 57.574 C 128.735 57.522,128.667 57.297,128.667 57.073 C 128.667 56.850,128.592 56.667,128.500 56.667 C 128.408 56.667,128.333 56.442,128.333 56.167 C 128.333 55.892,128.258 55.667,128.167 55.667 C 128.075 55.667,128.000 55.479,128.000 55.250 C 128.000 55.021,127.925 54.833,127.833 54.833 C 127.742 54.833,127.667 54.683,127.667 54.500 C 127.667 54.317,127.597 54.167,127.512 54.167 C 127.427 54.167,127.306 53.754,127.243 53.250 C 127.180 52.746,127.062 52.333,126.981 52.333 C 126.900 52.333,126.833 52.146,126.833 51.917 C 126.833 51.688,126.758 51.500,126.667 51.500 C 126.575 51.500,126.500 51.275,126.500 51.000 C 126.500 50.725,126.425 50.500,126.333 50.500 C 126.242 50.500,126.167 50.313,126.167 50.083 C 126.167 49.854,126.102 49.667,126.022 49.667 C 125.942 49.667,125.835 49.350,125.783 48.962 C 125.731 48.574,125.608 48.231,125.511 48.198 C 125.413 48.166,125.333 47.920,125.333 47.653 C 125.333 47.385,125.258 47.167,125.167 47.167 C 125.075 47.167,125.000 46.979,125.000 46.750 C 125.000 46.521,124.925 46.333,124.833 46.333 C 124.742 46.333,124.667 46.108,124.667 45.833 C 124.667 45.558,124.592 45.333,124.500 45.333 C 124.408 45.333,124.333 45.146,124.333 44.917 C 124.333 44.688,124.268 44.500,124.188 44.500 C 124.108 44.500,123.994 44.128,123.933 43.674 C 123.873 43.219,123.751 42.802,123.662 42.747 C 123.573 42.692,123.500 42.501,123.500 42.323 C 123.500 42.146,123.425 42.000,123.333 42.000 C 123.242 42.000,123.167 41.813,123.167 41.583 C 123.167 41.354,123.092 41.167,123.000 41.167 C 122.908 41.167,122.833 40.942,122.833 40.667 C 122.833 40.392,122.758 40.167,122.667 40.167 C 122.575 40.167,122.500 39.979,122.500 39.750 C 122.500 39.521,122.434 39.333,122.353 39.333 C 122.271 39.333,122.154 38.921,122.091 38.417 C 122.028 37.912,121.906 37.500,121.821 37.500 C 121.736 37.500,121.667 37.313,121.667 37.083 C 121.667 36.854,121.592 36.667,121.500 36.667 C 121.408 36.667,121.333 36.517,121.333 36.333 C 121.333 36.150,121.258 36.000,121.167 36.000 C 121.075 36.000,121.000 35.850,121.000 35.667 C 121.000 35.322,113.975 35.119,113.782 35.458 M277.500 35.833 C 277.500 36.108,277.425 36.333,277.333 36.333 C 277.242 36.333,277.167 36.521,277.167 36.750 C 277.167 36.979,277.092 37.167,277.000 37.167 C 276.908 37.167,276.833 37.392,276.833 37.667 C 276.833 37.942,276.777 38.167,276.707 38.167 C 276.519 38.167,276.195 38.991,276.069 39.792 C 276.008 40.181,275.892 40.500,275.812 40.500 C 275.732 40.500,275.667 40.725,275.667 41.000 C 275.667 41.275,275.592 41.500,275.500 41.500 C 275.408 41.500,275.333 41.688,275.333 41.917 C 275.333 42.146,275.258 42.333,275.167 42.333 C 275.075 42.333,275.000 42.558,275.000 42.833 C 275.000 43.108,274.925 43.333,274.833 43.333 C 274.742 43.333,274.667 43.516,274.667 43.740 C 274.667 43.964,274.598 44.189,274.515 44.241 C 274.431 44.293,274.312 44.635,274.250 45.001 C 274.188 45.367,274.069 45.667,273.985 45.667 C 273.902 45.667,273.833 45.892,273.833 46.167 C 273.833 46.442,273.758 46.667,273.667 46.667 C 273.575 46.667,273.500 46.854,273.500 47.083 C 273.500 47.313,273.425 47.500,273.333 47.500 C 273.242 47.500,273.167 47.725,273.167 48.000 C 273.167 48.275,273.099 48.500,273.016 48.500 C 272.933 48.500,272.813 48.875,272.750 49.333 C 272.687 49.792,272.567 50.167,272.484 50.167 C 272.401 50.167,272.333 50.392,272.333 50.667 C 272.333 50.942,272.258 51.167,272.167 51.167 C 272.075 51.167,272.000 51.354,272.000 51.583 C 272.000 51.813,271.925 52.000,271.833 52.000 C 271.742 52.000,271.667 52.150,271.667 52.333 C 271.667 52.517,271.592 52.667,271.500 52.667 C 271.408 52.667,271.333 52.887,271.333 53.157 C 271.333 53.426,271.263 53.691,271.176 53.744 C 271.090 53.797,270.969 54.177,270.907 54.587 C 270.846 54.998,270.729 55.333,270.648 55.333 C 270.566 55.333,270.500 55.558,270.500 55.833 C 270.500 56.108,270.425 56.333,270.333 56.333 C 270.242 56.333,270.167 56.521,270.167 56.750 C 270.167 56.979,270.092 57.167,270.000 57.167 C 269.908 57.167,269.833 57.392,269.833 57.667 C 269.833 57.942,269.758 58.167,269.667 58.167 C 269.575 58.167,269.500 58.335,269.499 58.542 C 269.498 58.748,269.386 59.131,269.249 59.394 C 269.112 59.657,269.000 60.013,269.000 60.186 C 269.000 60.359,268.925 60.500,268.833 60.500 C 268.742 60.500,268.667 60.725,268.667 61.000 C 268.667 61.275,268.592 61.500,268.500 61.500 C 268.408 61.500,268.333 61.688,268.333 61.917 C 268.333 62.146,268.258 62.333,268.167 62.333 C 268.075 62.333,268.000 62.558,268.000 62.833 C 268.000 63.108,267.930 63.333,267.845 63.333 C 267.760 63.333,267.639 63.746,267.576 64.250 C 267.513 64.754,267.395 65.167,267.314 65.167 C 267.233 65.167,267.167 65.354,267.167 65.583 L 267.167 66.000 270.167 66.000 L 273.167 66.000 273.167 65.593 C 273.167 65.369,273.242 65.140,273.333 65.083 C 273.425 65.027,273.500 64.797,273.500 64.573 C 273.500 64.350,273.575 64.167,273.667 64.167 C 273.758 64.167,273.833 63.984,273.833 63.760 C 273.833 63.536,273.898 63.313,273.978 63.264 C 274.058 63.214,274.174 62.722,274.236 62.170 C 274.299 61.618,274.421 61.167,274.508 61.167 C 274.595 61.167,274.667 60.942,274.667 60.667 C 274.667 60.392,274.742 60.167,274.833 60.167 C 274.925 60.167,275.000 60.011,275.000 59.821 C 275.000 59.012,275.088 59.000,281.155 59.000 C 286.722 59.000,286.833 59.007,286.833 59.333 C 286.833 59.517,286.908 59.667,287.000 59.667 C 287.092 59.667,287.167 59.854,287.167 60.083 C 287.167 60.313,287.242 60.500,287.333 60.500 C 287.425 60.500,287.500 60.725,287.500 61.000 C 287.500 61.275,287.560 61.500,287.634 61.500 C 287.752 61.500,287.987 62.308,288.277 63.708 C 288.329 63.960,288.438 64.167,288.519 64.167 C 288.600 64.167,288.667 64.392,288.667 64.667 C 288.667 64.942,288.742 65.167,288.833 65.167 C 288.925 65.167,289.000 65.354,289.000 65.583 L 289.000 66.000 292.167 66.000 C 295.271 66.000,295.913 65.878,295.182 65.426 C 295.099 65.375,294.980 64.958,294.917 64.500 C 294.854 64.042,294.734 63.667,294.651 63.667 C 294.568 63.667,294.500 63.442,294.500 63.167 C 294.500 62.892,294.425 62.667,294.333 62.667 C 294.242 62.667,294.167 62.479,294.167 62.250 C 294.167 62.021,294.092 61.833,294.000 61.833 C 293.908 61.833,293.833 61.608,293.833 61.333 C 293.833 61.058,293.758 60.833,293.667 60.833 C 293.575 60.833,293.500 60.646,293.500 60.417 C 293.500 60.188,293.430 60.000,293.344 60.000 C 293.257 60.000,293.136 59.663,293.075 59.250 C 293.013 58.837,292.896 58.500,292.814 58.500 C 292.733 58.500,292.667 58.275,292.667 58.000 C 292.667 57.725,292.592 57.500,292.500 57.500 C 292.408 57.500,292.333 57.313,292.333 57.083 C 292.333 56.854,292.258 56.667,292.167 56.667 C 292.075 56.667,292.000 56.442,292.000 56.167 C 292.000 55.892,291.925 55.667,291.833 55.667 C 291.742 55.667,291.667 55.542,291.667 55.390 C 291.667 54.948,291.119 53.333,290.970 53.333 C 290.895 53.333,290.833 53.108,290.833 52.833 C 290.833 52.558,290.758 52.333,290.667 52.333 C 290.575 52.333,290.500 52.146,290.500 51.917 C 290.500 51.688,290.425 51.500,290.333 51.500 C 290.242 51.500,290.167 51.275,290.167 51.000 C 290.167 50.725,290.099 50.500,290.016 50.500 C 289.933 50.500,289.813 50.125,289.750 49.667 C 289.687 49.209,289.567 48.792,289.484 48.740 C 289.401 48.689,289.333 48.464,289.333 48.240 C 289.333 48.016,289.258 47.833,289.167 47.833 C 289.075 47.833,289.000 47.683,289.000 47.500 C 289.000 47.317,288.925 47.167,288.833 47.167 C 288.742 47.167,288.667 46.979,288.667 46.750 C 288.667 46.521,288.592 46.333,288.500 46.333 C 288.408 46.333,288.333 46.108,288.333 45.833 C 288.333 45.558,288.265 45.333,288.182 45.333 C 288.099 45.333,287.980 44.958,287.917 44.500 C 287.854 44.042,287.734 43.625,287.651 43.574 C 287.568 43.522,287.500 43.297,287.500 43.073 C 287.500 42.850,287.425 42.667,287.333 42.667 C 287.242 42.667,287.167 42.484,287.167 42.260 C 287.167 42.036,287.092 41.807,287.000 41.750 C 286.908 41.693,286.833 41.464,286.833 41.240 C 286.833 41.016,286.763 40.833,286.677 40.833 C 286.591 40.833,286.470 40.496,286.408 40.083 C 286.346 39.671,286.229 39.333,286.148 39.333 C 286.066 39.333,286.000 39.150,286.000 38.927 C 286.000 38.703,285.925 38.473,285.833 38.417 C 285.742 38.360,285.667 38.131,285.667 37.907 C 285.667 37.683,285.592 37.500,285.500 37.500 C 285.408 37.500,285.333 37.317,285.333 37.093 C 285.333 36.869,285.258 36.640,285.167 36.583 C 285.075 36.527,285.000 36.329,285.000 36.145 C 285.000 35.386,284.743 35.333,281.012 35.333 L 277.500 35.333 277.500 35.833 M117.667 42.478 C 117.667 42.663,117.742 42.860,117.833 42.917 C 117.925 42.973,118.000 43.203,118.000 43.427 C 118.000 43.650,118.075 43.833,118.167 43.833 C 118.258 43.833,118.333 44.058,118.333 44.333 C 118.333 44.608,118.401 44.833,118.484 44.833 C 118.567 44.833,118.687 45.208,118.750 45.666 C 118.813 46.125,118.933 46.542,119.016 46.593 C 119.099 46.644,119.167 46.869,119.167 47.093 C 119.167 47.317,119.242 47.500,119.333 47.500 C 119.425 47.500,119.500 47.688,119.500 47.917 C 119.500 48.146,119.575 48.333,119.667 48.333 C 119.758 48.333,119.833 48.558,119.833 48.833 C 119.833 49.108,119.908 49.333,120.000 49.333 C 120.092 49.333,120.167 49.521,120.167 49.750 C 120.167 49.979,120.233 50.167,120.314 50.167 C 120.395 50.167,120.513 50.579,120.576 51.083 C 120.639 51.587,120.760 52.000,120.845 52.000 C 120.930 52.000,121.000 52.225,121.000 52.500 C 121.000 52.775,121.075 53.000,121.167 53.000 C 121.258 53.000,121.333 53.188,121.333 53.417 C 121.333 53.646,121.408 53.833,121.500 53.833 C 121.592 53.833,121.667 53.908,121.667 54.000 C 121.667 54.107,120.139 54.167,117.417 54.167 C 114.694 54.167,113.167 54.107,113.167 54.000 C 113.167 53.908,113.232 53.833,113.312 53.833 C 113.392 53.833,113.508 53.386,113.570 52.838 C 113.631 52.291,113.754 51.799,113.841 51.745 C 113.928 51.691,114.000 51.464,114.000 51.240 C 114.000 51.016,114.075 50.833,114.167 50.833 C 114.258 50.833,114.333 50.646,114.333 50.417 C 114.333 50.188,114.408 50.000,114.500 50.000 C 114.592 50.000,114.667 49.775,114.667 49.500 C 114.667 49.225,114.742 49.000,114.833 49.000 C 114.925 49.000,115.000 48.817,115.000 48.593 C 115.000 48.369,115.068 48.144,115.151 48.093 C 115.234 48.042,115.354 47.625,115.417 47.166 C 115.480 46.708,115.599 46.333,115.682 46.333 C 115.765 46.333,115.833 46.108,115.833 45.833 C 115.833 45.558,115.908 45.333,116.000 45.333 C 116.092 45.333,116.167 45.146,116.167 44.917 C 116.167 44.688,116.242 44.500,116.333 44.500 C 116.425 44.500,116.500 44.275,116.500 44.000 C 116.500 43.725,116.575 43.500,116.667 43.500 C 116.758 43.500,116.834 43.369,116.834 43.208 C 116.837 42.412,117.179 41.655,117.425 41.902 C 117.558 42.034,117.667 42.294,117.667 42.478 M145.667 41.833 C 145.667 41.925,145.329 42.000,144.917 42.000 C 144.504 42.000,144.167 42.075,144.167 42.167 C 144.167 42.258,144.017 42.333,143.833 42.333 C 143.650 42.333,143.500 42.408,143.500 42.500 C 143.500 42.592,143.350 42.667,143.167 42.667 C 142.983 42.667,142.833 42.742,142.833 42.833 C 142.833 42.925,142.755 43.000,142.660 43.000 C 142.342 43.000,140.833 44.444,140.833 44.748 C 140.833 44.846,140.683 45.035,140.500 45.167 C 140.317 45.299,140.167 45.540,140.167 45.703 C 140.167 45.867,140.092 46.000,140.000 46.000 C 139.899 46.000,139.833 45.278,139.833 44.167 L 139.833 42.333 137.083 42.333 L 134.333 42.333 134.333 57.667 L 134.333 73.000 137.250 73.000 L 140.167 73.000 140.167 67.667 C 140.167 64.222,140.226 62.333,140.333 62.333 C 140.425 62.333,140.500 62.483,140.500 62.667 C 140.500 62.850,140.575 63.000,140.667 63.000 C 140.758 63.000,140.833 63.111,140.833 63.246 C 140.833 63.567,142.600 65.333,142.920 65.333 C 143.056 65.333,143.167 65.408,143.167 65.500 C 143.167 65.592,143.317 65.667,143.500 65.667 C 143.683 65.667,143.833 65.742,143.833 65.833 C 143.833 65.925,144.096 66.000,144.417 66.000 C 144.737 66.000,145.000 66.075,145.000 66.167 C 145.000 66.270,145.861 66.333,147.250 66.333 C 148.639 66.333,149.500 66.270,149.500 66.167 C 149.500 66.075,149.800 66.000,150.167 66.000 C 150.533 66.000,150.833 65.925,150.833 65.833 C 150.833 65.742,150.946 65.667,151.083 65.667 C 151.221 65.667,151.333 65.600,151.333 65.519 C 151.333 65.437,151.577 65.323,151.875 65.265 C 152.479 65.149,154.374 63.352,154.573 62.708 C 154.637 62.502,154.759 62.333,154.845 62.333 C 154.930 62.333,155.000 62.221,155.000 62.083 C 155.000 61.946,155.075 61.833,155.167 61.833 C 155.258 61.833,155.333 61.683,155.333 61.500 C 155.333 61.317,155.408 61.167,155.500 61.167 C 155.592 61.167,155.667 61.017,155.667 60.833 C 155.667 60.650,155.742 60.500,155.833 60.500 C 155.925 60.500,156.000 60.328,156.000 60.117 C 156.000 59.906,156.079 59.654,156.176 59.557 C 156.273 59.461,156.396 58.696,156.451 57.857 C 156.505 57.019,156.613 56.333,156.691 56.333 C 156.769 56.333,156.833 55.321,156.833 54.083 C 156.833 52.846,156.769 51.833,156.691 51.833 C 156.613 51.833,156.505 51.148,156.451 50.309 C 156.396 49.471,156.273 48.706,156.176 48.609 C 156.079 48.513,156.000 48.298,156.000 48.133 C 156.000 47.968,155.925 47.833,155.833 47.833 C 155.742 47.833,155.667 47.608,155.667 47.333 C 155.667 47.058,155.592 46.833,155.500 46.833 C 155.408 46.833,155.333 46.721,155.333 46.583 C 155.333 46.446,155.258 46.333,155.167 46.333 C 155.075 46.333,155.000 46.218,155.000 46.076 C 155.000 45.935,154.813 45.617,154.583 45.369 C 154.354 45.122,154.167 44.861,154.167 44.788 C 154.167 44.560,153.067 43.544,152.691 43.424 C 152.494 43.362,152.333 43.241,152.333 43.155 C 152.333 43.070,152.183 43.000,152.000 43.000 C 151.817 43.000,151.667 42.925,151.667 42.833 C 151.667 42.742,151.554 42.667,151.417 42.667 C 151.279 42.667,151.167 42.592,151.167 42.500 C 151.167 42.408,151.017 42.333,150.833 42.333 C 150.650 42.333,150.500 42.258,150.500 42.167 C 150.500 42.075,150.167 42.000,149.760 42.000 C 149.353 42.000,148.973 41.925,148.917 41.833 C 148.860 41.741,148.109 41.667,147.240 41.667 C 146.302 41.667,145.667 41.734,145.667 41.833 M167.917 41.833 C 167.860 41.925,167.481 42.000,167.073 42.000 C 166.666 42.000,166.333 42.075,166.333 42.167 C 166.333 42.258,166.071 42.333,165.750 42.333 C 165.429 42.333,165.167 42.408,165.167 42.500 C 165.167 42.592,165.017 42.667,164.833 42.667 C 164.650 42.667,164.500 42.742,164.500 42.833 C 164.500 42.925,164.350 43.000,164.167 43.000 C 163.983 43.000,163.833 43.070,163.833 43.155 C 163.833 43.241,163.669 43.363,163.469 43.427 C 163.038 43.563,161.500 45.098,161.500 45.391 C 161.500 45.502,161.350 45.701,161.167 45.833 C 160.983 45.965,160.833 46.207,160.833 46.370 C 160.833 46.533,160.758 46.667,160.667 46.667 C 160.575 46.667,160.500 46.854,160.500 47.083 C 160.500 47.313,160.425 47.500,160.333 47.500 C 160.242 47.500,160.167 47.725,160.167 48.000 C 160.167 48.275,160.086 48.500,159.988 48.500 C 159.890 48.500,159.834 48.669,159.863 48.875 C 159.916 49.246,159.947 49.250,162.958 49.295 L 166.000 49.341 166.000 48.837 C 166.000 48.560,166.075 48.333,166.167 48.333 C 166.258 48.333,166.333 48.253,166.333 48.155 C 166.333 47.955,166.746 47.500,166.927 47.500 C 166.991 47.500,167.191 47.331,167.369 47.125 C 167.676 46.771,167.820 46.750,169.904 46.750 L 172.113 46.750 172.806 47.472 C 173.188 47.869,173.500 48.300,173.500 48.430 C 173.500 48.560,173.575 48.667,173.667 48.667 C 173.758 48.667,173.833 49.004,173.833 49.417 C 173.833 49.829,173.908 50.167,174.000 50.167 C 174.092 50.167,174.167 50.467,174.167 50.833 C 174.167 51.484,174.153 51.500,173.583 51.500 C 173.262 51.500,173.000 51.566,173.000 51.647 C 173.000 51.729,171.649 51.850,169.998 51.917 C 168.347 51.984,166.955 52.105,166.905 52.186 C 166.855 52.267,166.481 52.333,166.073 52.333 C 165.666 52.333,165.333 52.408,165.333 52.500 C 165.333 52.592,165.071 52.667,164.750 52.667 C 164.429 52.667,164.167 52.742,164.167 52.833 C 164.167 52.925,164.017 53.000,163.833 53.000 C 163.650 53.000,163.500 53.072,163.500 53.159 C 163.500 53.247,163.237 53.367,162.917 53.428 C 162.596 53.488,162.333 53.604,162.333 53.685 C 162.333 53.767,162.250 53.833,162.149 53.833 C 161.456 53.833,159.667 56.345,159.667 57.317 C 159.667 57.601,159.592 57.833,159.500 57.833 C 159.399 57.833,159.333 58.556,159.333 59.667 C 159.333 60.675,159.400 61.500,159.481 61.500 C 159.562 61.500,159.679 61.837,159.741 62.250 C 159.803 62.663,159.924 63.000,160.010 63.000 C 160.096 63.000,160.167 63.082,160.167 63.182 C 160.167 63.474,162.090 65.333,162.392 65.333 C 162.543 65.333,162.667 65.408,162.667 65.500 C 162.667 65.592,162.854 65.667,163.083 65.667 C 163.313 65.667,163.500 65.742,163.500 65.833 C 163.500 65.925,163.725 66.000,164.000 66.000 C 164.275 66.000,164.500 66.075,164.500 66.167 C 164.500 66.271,165.472 66.333,167.083 66.333 C 168.694 66.333,169.667 66.271,169.667 66.167 C 169.667 66.075,169.854 66.000,170.083 66.000 C 170.313 66.000,170.500 65.925,170.500 65.833 C 170.500 65.742,170.725 65.667,171.000 65.667 C 171.275 65.667,171.500 65.597,171.500 65.511 C 171.500 65.426,171.665 65.303,171.868 65.239 C 172.296 65.103,173.500 63.899,173.500 63.607 C 173.500 63.497,173.650 63.299,173.833 63.167 C 174.017 63.035,174.167 62.793,174.167 62.630 C 174.167 62.467,174.242 62.333,174.333 62.333 C 174.434 62.333,174.500 63.056,174.500 64.167 L 174.500 66.000 177.250 66.000 L 180.000 66.000 180.000 57.333 C 180.000 51.667,179.942 48.667,179.833 48.667 C 179.742 48.667,179.667 48.329,179.667 47.917 C 179.667 47.504,179.592 47.167,179.500 47.167 C 179.408 47.167,179.333 46.979,179.333 46.750 C 179.333 46.521,179.258 46.333,179.167 46.333 C 179.075 46.333,179.000 46.183,179.000 46.000 C 179.000 45.817,178.930 45.667,178.845 45.667 C 178.759 45.667,178.638 45.506,178.576 45.310 C 178.430 44.850,177.150 43.570,176.690 43.424 C 176.494 43.362,176.333 43.241,176.333 43.155 C 176.333 43.070,176.183 43.000,176.000 43.000 C 175.817 43.000,175.666 42.944,175.665 42.875 C 175.663 42.673,174.807 42.333,174.300 42.333 C 174.043 42.333,173.833 42.258,173.833 42.167 C 173.833 42.075,173.496 42.000,173.083 42.000 C 172.671 42.000,172.333 41.925,172.333 41.833 C 172.333 41.731,171.503 41.667,170.177 41.667 C 168.918 41.667,167.977 41.736,167.917 41.833 M193.000 41.824 C 193.000 41.926,192.616 42.000,192.083 42.000 C 191.579 42.000,191.167 42.075,191.167 42.167 C 191.167 42.258,190.979 42.333,190.750 42.333 C 190.521 42.333,190.333 42.408,190.333 42.500 C 190.333 42.592,190.108 42.667,189.833 42.667 C 189.558 42.667,189.333 42.742,189.333 42.833 C 189.333 42.925,189.221 43.000,189.083 43.000 C 188.946 43.000,188.833 43.068,188.833 43.150 C 188.833 43.233,188.620 43.375,188.358 43.466 C 188.097 43.557,187.682 43.846,187.437 44.108 C 186.776 44.813,186.790 44.798,186.236 45.292 C 185.954 45.544,185.671 45.956,185.608 46.208 C 185.545 46.460,185.420 46.667,185.330 46.667 C 185.240 46.667,185.167 46.779,185.167 46.917 C 185.167 47.054,185.092 47.167,185.000 47.167 C 184.908 47.167,184.833 47.317,184.833 47.500 C 184.833 47.683,184.758 47.833,184.667 47.833 C 184.575 47.833,184.500 48.021,184.500 48.250 C 184.500 48.479,184.425 48.667,184.333 48.667 C 184.242 48.667,184.167 48.960,184.167 49.319 C 184.167 49.694,184.078 50.002,183.958 50.042 C 183.800 50.095,183.750 51.030,183.750 53.964 C 183.750 56.824,183.804 57.870,183.958 58.025 C 184.073 58.140,184.167 58.481,184.167 58.783 C 184.167 59.086,184.242 59.333,184.333 59.333 C 184.425 59.333,184.500 59.521,184.500 59.750 C 184.500 59.979,184.575 60.167,184.667 60.167 C 184.758 60.167,184.833 60.317,184.833 60.500 C 184.833 60.683,184.908 60.833,185.000 60.833 C 185.092 60.833,185.167 60.983,185.167 61.167 C 185.167 61.350,185.242 61.500,185.333 61.500 C 185.425 61.500,185.500 61.609,185.500 61.742 C 185.500 61.876,185.688 62.172,185.917 62.402 C 186.146 62.631,186.333 62.929,186.333 63.065 C 186.333 63.200,186.483 63.358,186.667 63.417 C 186.850 63.475,187.000 63.592,187.000 63.678 C 187.000 63.763,187.082 63.833,187.183 63.833 C 187.284 63.833,187.576 64.058,187.833 64.333 C 188.090 64.608,188.420 64.833,188.567 64.833 C 188.713 64.833,188.833 64.905,188.833 64.992 C 188.833 65.080,189.096 65.201,189.417 65.261 C 189.737 65.321,190.000 65.437,190.000 65.519 C 190.000 65.600,190.188 65.667,190.417 65.667 C 190.646 65.667,190.833 65.742,190.833 65.833 C 190.833 65.925,191.133 66.000,191.500 66.000 C 191.867 66.000,192.167 66.075,192.167 66.167 C 192.167 66.271,193.222 66.333,195.000 66.333 C 196.778 66.333,197.833 66.271,197.833 66.167 C 197.833 66.075,198.133 66.000,198.500 66.000 C 198.867 66.000,199.167 65.925,199.167 65.833 C 199.167 65.742,199.354 65.667,199.583 65.667 C 199.813 65.667,200.000 65.592,200.000 65.500 C 200.000 65.408,200.182 65.333,200.405 65.333 C 200.627 65.333,200.922 65.221,201.060 65.083 C 201.197 64.946,201.411 64.833,201.535 64.833 C 201.658 64.833,201.868 64.683,202.000 64.500 C 202.132 64.317,202.304 64.167,202.382 64.167 C 202.460 64.167,202.635 64.056,202.770 63.920 C 202.906 63.785,203.154 63.577,203.323 63.459 C 203.639 63.238,204.260 62.309,204.438 61.792 C 204.494 61.631,204.605 61.500,204.686 61.500 C 204.767 61.500,204.833 61.350,204.833 61.167 C 204.833 60.983,204.908 60.833,205.000 60.833 C 205.092 60.833,205.167 60.683,205.167 60.500 C 205.167 60.317,205.242 60.167,205.333 60.167 C 205.425 60.167,205.500 59.910,205.500 59.597 C 205.500 59.284,205.564 59.003,205.642 58.972 C 205.720 58.942,205.835 58.523,205.898 58.042 L 206.011 57.167 203.006 57.167 L 200.000 57.167 200.000 57.833 C 200.000 58.200,199.940 58.500,199.868 58.500 C 199.795 58.500,199.601 58.826,199.437 59.223 C 199.273 59.621,198.984 60.053,198.796 60.182 C 198.608 60.311,198.280 60.585,198.068 60.792 C 197.856 60.998,197.528 61.167,197.341 61.167 C 197.153 61.167,197.000 61.242,197.000 61.333 C 197.000 61.425,196.742 61.500,196.427 61.500 C 196.111 61.500,195.807 61.575,195.750 61.667 C 195.693 61.758,195.389 61.833,195.073 61.833 C 194.758 61.833,194.500 61.758,194.500 61.667 C 194.500 61.575,194.162 61.500,193.750 61.500 C 193.338 61.500,193.000 61.425,193.000 61.333 C 193.000 61.242,192.850 61.167,192.667 61.167 C 192.483 61.167,192.333 61.092,192.333 61.000 C 192.333 60.908,192.253 60.833,192.155 60.833 C 192.057 60.833,191.878 60.740,191.759 60.625 C 191.639 60.510,191.382 60.306,191.187 60.172 C 190.993 60.037,190.833 59.839,190.833 59.732 C 190.833 59.625,190.721 59.323,190.584 59.061 C 190.447 58.798,190.335 58.415,190.334 58.208 C 190.334 58.002,190.258 57.833,190.167 57.833 C 190.061 57.833,190.000 56.500,190.000 54.167 C 190.000 51.833,190.061 50.500,190.167 50.500 C 190.258 50.500,190.337 50.331,190.341 50.125 C 190.353 49.490,190.787 48.481,191.159 48.220 C 191.353 48.084,191.694 47.791,191.915 47.569 C 192.137 47.348,192.390 47.167,192.479 47.167 C 192.567 47.167,192.670 47.073,192.708 46.958 C 192.760 46.805,193.387 46.750,195.084 46.750 C 196.780 46.750,197.407 46.805,197.458 46.958 C 197.497 47.073,197.637 47.167,197.769 47.167 C 198.269 47.167,199.667 48.839,199.667 49.436 C 199.667 49.563,199.742 49.667,199.833 49.667 C 199.925 49.667,200.000 49.929,200.000 50.250 L 200.000 50.833 202.917 50.833 L 205.833 50.833 205.833 49.917 C 205.833 49.413,205.758 49.000,205.667 49.000 C 205.575 49.000,205.500 48.813,205.500 48.583 C 205.500 48.354,205.425 48.167,205.333 48.167 C 205.242 48.167,205.167 47.942,205.167 47.667 C 205.167 47.392,205.092 47.167,205.000 47.167 C 204.908 47.167,204.833 47.054,204.833 46.917 C 204.833 46.779,204.770 46.667,204.692 46.667 C 204.614 46.667,204.421 46.379,204.262 46.027 C 204.104 45.676,203.820 45.282,203.631 45.152 C 203.188 44.849,202.649 44.307,202.338 43.856 C 202.203 43.660,201.965 43.500,201.808 43.500 C 201.652 43.500,201.411 43.387,201.274 43.250 C 201.136 43.112,200.943 43.000,200.845 43.000 C 200.747 43.000,200.667 42.925,200.667 42.833 C 200.667 42.742,200.442 42.667,200.167 42.667 C 199.892 42.667,199.667 42.592,199.667 42.500 C 199.667 42.408,199.479 42.333,199.250 42.333 C 199.021 42.333,198.833 42.266,198.833 42.183 C 198.833 41.983,197.540 41.829,195.042 41.729 C 193.667 41.674,193.000 41.705,193.000 41.824 M243.500 41.833 C 243.500 41.925,243.088 42.000,242.583 42.000 C 242.079 42.000,241.667 42.075,241.667 42.167 C 241.667 42.258,241.442 42.333,241.167 42.333 C 240.892 42.333,240.667 42.408,240.667 42.500 C 240.667 42.592,240.479 42.667,240.250 42.667 C 240.021 42.667,239.833 42.742,239.833 42.833 C 239.833 42.925,239.683 43.000,239.500 43.000 C 239.317 43.000,239.167 43.070,239.167 43.155 C 239.167 43.241,239.007 43.362,238.811 43.424 C 238.336 43.574,235.833 46.085,235.833 46.411 C 235.833 46.551,235.758 46.667,235.667 46.667 C 235.575 46.667,235.500 46.779,235.500 46.917 C 235.500 47.054,235.430 47.167,235.344 47.167 C 235.257 47.167,235.136 47.504,235.075 47.917 C 235.013 48.329,234.896 48.667,234.814 48.667 C 234.733 48.667,234.667 48.892,234.667 49.167 C 234.667 49.442,234.592 49.667,234.500 49.667 C 234.408 49.667,234.333 50.004,234.333 50.417 C 234.333 50.829,234.258 51.167,234.167 51.167 C 234.062 51.167,234.000 52.222,234.000 54.000 C 234.000 55.778,234.062 56.833,234.167 56.833 C 234.258 56.833,234.333 57.208,234.333 57.667 C 234.333 58.125,234.408 58.500,234.500 58.500 C 234.592 58.500,234.667 58.762,234.667 59.083 C 234.667 59.404,234.741 59.667,234.831 59.667 C 234.922 59.667,235.043 59.962,235.101 60.323 C 235.159 60.684,235.347 61.131,235.520 61.316 C 235.692 61.501,235.833 61.714,235.833 61.790 C 235.833 61.865,235.983 62.035,236.167 62.167 C 236.350 62.299,236.500 62.512,236.500 62.640 C 236.500 62.941,237.723 64.167,238.024 64.167 C 238.150 64.167,238.347 64.317,238.461 64.500 C 238.576 64.683,238.781 64.833,238.918 64.833 C 239.055 64.833,239.167 64.900,239.167 64.981 C 239.167 65.063,239.429 65.179,239.750 65.239 C 240.071 65.299,240.333 65.420,240.333 65.508 C 240.333 65.595,240.558 65.667,240.833 65.667 C 241.108 65.667,241.333 65.742,241.333 65.833 C 241.333 65.925,241.596 66.000,241.917 66.000 C 242.237 66.000,242.500 66.075,242.500 66.167 C 242.500 66.271,243.583 66.333,245.417 66.333 C 247.250 66.333,248.333 66.271,248.333 66.167 C 248.333 66.075,248.671 66.000,249.083 66.000 C 249.496 66.000,249.833 65.925,249.833 65.833 C 249.833 65.742,250.021 65.667,250.250 65.667 C 250.479 65.667,250.667 65.600,250.667 65.519 C 250.667 65.437,250.931 65.321,251.254 65.260 C 251.577 65.200,251.932 65.004,252.044 64.825 C 252.155 64.646,252.347 64.500,252.470 64.500 C 252.744 64.500,254.667 62.602,254.667 62.332 C 254.667 62.224,254.821 62.011,255.010 61.858 C 255.218 61.690,255.392 61.299,255.449 60.873 C 255.501 60.485,255.609 60.167,255.689 60.167 C 255.768 60.167,255.833 59.904,255.833 59.583 L 255.833 59.000 253.071 59.000 C 250.268 59.000,249.833 59.091,249.833 59.674 C 249.833 59.923,248.823 60.827,248.542 60.831 C 248.427 60.832,248.333 60.908,248.333 61.000 C 248.333 61.092,248.183 61.167,248.000 61.167 C 247.817 61.167,247.667 61.242,247.667 61.333 C 247.667 61.425,247.329 61.500,246.917 61.500 C 246.504 61.500,246.167 61.575,246.167 61.667 C 246.167 61.758,245.904 61.833,245.583 61.833 C 245.262 61.833,245.000 61.758,245.000 61.667 C 245.000 61.575,244.662 61.500,244.250 61.500 C 243.838 61.500,243.500 61.425,243.500 61.333 C 243.500 61.242,243.350 61.167,243.167 61.167 C 242.983 61.167,242.833 61.092,242.833 61.000 C 242.833 60.908,242.715 60.833,242.571 60.833 C 242.230 60.833,241.333 59.937,241.333 59.596 C 241.333 59.452,241.277 59.333,241.208 59.332 C 241.042 59.330,240.667 58.509,240.667 58.147 C 240.667 57.990,240.603 57.836,240.525 57.806 C 240.447 57.775,240.339 57.206,240.285 56.542 L 240.186 55.333 248.343 55.333 L 256.500 55.333 256.500 52.500 C 256.500 50.722,256.438 49.667,256.333 49.667 C 256.242 49.667,256.167 49.404,256.167 49.083 C 256.167 48.762,256.092 48.500,256.000 48.500 C 255.908 48.500,255.833 48.350,255.833 48.167 C 255.833 47.983,255.768 47.833,255.689 47.833 C 255.609 47.833,255.503 47.529,255.453 47.157 C 255.401 46.768,255.215 46.353,255.015 46.179 C 254.823 46.013,254.667 45.794,254.667 45.691 C 254.667 45.410,253.042 43.833,252.752 43.833 C 252.613 43.833,252.500 43.760,252.500 43.670 C 252.500 43.580,252.313 43.459,252.083 43.402 C 251.854 43.344,251.667 43.230,251.667 43.149 C 251.667 43.067,251.517 43.000,251.333 43.000 C 251.150 43.000,251.000 42.925,251.000 42.833 C 251.000 42.742,250.850 42.667,250.667 42.667 C 250.483 42.667,250.333 42.592,250.333 42.500 C 250.333 42.408,250.071 42.333,249.750 42.333 C 249.429 42.333,249.167 42.258,249.167 42.167 C 249.167 42.075,248.829 42.000,248.417 42.000 C 248.004 42.000,247.667 41.925,247.667 41.833 C 247.667 41.731,246.861 41.667,245.583 41.667 C 244.306 41.667,243.500 41.731,243.500 41.833 M281.333 42.167 C 281.333 42.442,281.408 42.667,281.500 42.667 C 281.592 42.667,281.667 42.929,281.667 43.250 C 281.667 43.571,281.742 43.833,281.833 43.833 C 281.925 43.833,282.000 44.016,282.000 44.240 C 282.000 44.464,282.075 44.693,282.167 44.750 C 282.258 44.807,282.333 45.036,282.333 45.260 C 282.333 45.484,282.400 45.667,282.481 45.667 C 282.562 45.667,282.671 45.873,282.723 46.125 C 283.013 47.525,283.248 48.333,283.366 48.333 C 283.440 48.333,283.500 48.558,283.500 48.833 C 283.500 49.108,283.575 49.333,283.667 49.333 C 283.758 49.333,283.833 49.521,283.833 49.750 C 283.833 49.979,283.908 50.167,284.000 50.167 C 284.092 50.167,284.167 50.392,284.167 50.667 C 284.167 50.942,284.235 51.167,284.318 51.167 C 284.401 51.167,284.520 51.542,284.583 52.000 C 284.646 52.458,284.766 52.875,284.849 52.926 C 284.932 52.978,285.000 53.203,285.000 53.427 C 285.000 53.650,285.075 53.833,285.167 53.833 C 285.258 53.833,285.333 53.908,285.333 54.000 C 285.333 54.107,283.806 54.167,281.083 54.167 C 278.361 54.167,276.833 54.107,276.833 54.000 C 276.833 53.908,276.908 53.833,277.000 53.833 C 277.092 53.833,277.167 53.682,277.167 53.498 C 277.167 53.313,277.233 53.032,277.313 52.873 C 277.606 52.294,278.002 50.906,278.001 50.458 C 278.000 50.206,278.075 50.000,278.167 50.000 C 278.258 50.000,278.333 49.775,278.333 49.500 C 278.333 49.225,278.408 49.000,278.500 49.000 C 278.592 49.000,278.667 48.813,278.667 48.583 C 278.667 48.354,278.742 48.167,278.833 48.167 C 278.925 48.167,279.000 47.942,279.000 47.667 C 279.000 47.392,279.070 47.167,279.155 47.167 C 279.240 47.167,279.361 46.754,279.424 46.250 C 279.487 45.746,279.605 45.333,279.686 45.333 C 279.767 45.333,279.833 45.146,279.833 44.917 C 279.833 44.688,279.908 44.500,280.000 44.500 C 280.092 44.500,280.167 44.275,280.167 44.000 C 280.167 43.725,280.242 43.500,280.333 43.500 C 280.425 43.500,280.500 43.313,280.500 43.083 C 280.500 42.854,280.575 42.667,280.667 42.667 C 280.758 42.667,280.833 42.442,280.833 42.167 C 280.833 41.833,280.917 41.667,281.083 41.667 C 281.250 41.667,281.333 41.833,281.333 42.167 M349.167 41.833 C 349.167 41.925,348.754 42.000,348.250 42.000 C 347.746 42.000,347.333 42.075,347.333 42.167 C 347.333 42.258,347.108 42.333,346.833 42.333 C 346.558 42.333,346.333 42.408,346.333 42.500 C 346.333 42.592,346.221 42.667,346.083 42.667 C 345.946 42.667,345.833 42.742,345.833 42.833 C 345.833 42.925,345.683 43.000,345.500 43.000 C 345.317 43.000,345.167 43.066,345.167 43.146 C 345.167 43.226,344.944 43.336,344.672 43.391 C 344.117 43.502,341.500 45.998,341.500 46.417 C 341.500 46.554,341.428 46.667,341.341 46.667 C 341.253 46.667,341.133 46.929,341.072 47.250 C 341.012 47.571,340.896 47.833,340.815 47.833 C 340.733 47.833,340.667 47.983,340.667 48.167 C 340.667 48.350,340.592 48.500,340.500 48.500 C 340.408 48.500,340.333 48.688,340.333 48.917 C 340.333 49.146,340.258 49.333,340.167 49.333 C 340.075 49.333,340.000 49.671,340.000 50.083 C 340.000 50.496,339.925 50.833,339.833 50.833 C 339.728 50.833,339.667 52.000,339.667 54.000 C 339.667 56.000,339.728 57.167,339.833 57.167 C 339.925 57.167,340.000 57.504,340.000 57.917 C 340.000 58.329,340.075 58.667,340.167 58.667 C 340.258 58.667,340.333 58.892,340.333 59.167 C 340.333 59.442,340.408 59.667,340.500 59.667 C 340.592 59.667,340.667 59.854,340.667 60.083 C 340.667 60.313,340.733 60.500,340.815 60.500 C 340.896 60.500,341.011 60.756,341.070 61.068 C 341.134 61.414,341.369 61.789,341.670 62.027 C 341.941 62.241,342.164 62.510,342.165 62.625 C 342.167 62.900,343.439 64.167,343.713 64.167 C 343.830 64.167,344.035 64.317,344.167 64.500 C 344.299 64.683,344.503 64.833,344.620 64.833 C 344.737 64.833,344.833 64.902,344.833 64.985 C 344.833 65.069,345.133 65.188,345.500 65.250 C 345.867 65.312,346.167 65.431,346.167 65.515 C 346.167 65.598,346.354 65.667,346.583 65.667 C 346.813 65.667,347.000 65.742,347.000 65.833 C 347.000 65.925,347.337 66.000,347.750 66.000 C 348.162 66.000,348.500 66.075,348.500 66.167 C 348.500 66.271,349.583 66.333,351.417 66.333 C 353.250 66.333,354.333 66.271,354.333 66.167 C 354.333 66.075,354.596 66.000,354.917 66.000 C 355.238 66.000,355.500 65.925,355.500 65.833 C 355.500 65.742,355.688 65.667,355.917 65.667 C 356.146 65.667,356.333 65.598,356.333 65.515 C 356.333 65.431,356.633 65.312,357.000 65.250 C 357.367 65.188,357.667 65.069,357.667 64.985 C 357.667 64.902,357.763 64.833,357.880 64.833 C 357.997 64.833,358.201 64.683,358.333 64.500 C 358.465 64.317,358.680 64.167,358.809 64.167 C 359.104 64.167,360.667 62.596,360.667 62.299 C 360.667 62.179,360.813 61.989,360.992 61.877 C 361.171 61.766,361.366 61.410,361.427 61.087 C 361.488 60.764,361.604 60.500,361.685 60.500 C 361.767 60.500,361.833 60.387,361.833 60.250 C 361.833 60.112,361.908 60.000,362.000 60.000 C 362.092 60.000,362.167 59.775,362.167 59.500 C 362.167 59.225,362.242 59.000,362.333 59.000 C 362.425 59.000,362.500 58.663,362.500 58.250 C 362.500 57.837,362.575 57.500,362.667 57.500 C 362.772 57.500,362.833 56.222,362.833 54.000 C 362.833 51.778,362.772 50.500,362.667 50.500 C 362.575 50.500,362.500 50.237,362.500 49.917 C 362.500 49.596,362.425 49.333,362.333 49.333 C 362.242 49.333,362.167 49.150,362.167 48.927 C 362.167 48.703,362.092 48.473,362.000 48.417 C 361.908 48.360,361.833 48.131,361.833 47.907 C 361.833 47.683,361.758 47.500,361.667 47.500 C 361.575 47.500,361.500 47.348,361.500 47.161 C 361.500 46.975,361.387 46.780,361.250 46.727 C 361.113 46.674,361.000 46.506,361.000 46.352 C 361.000 46.199,360.850 45.965,360.667 45.833 C 360.483 45.701,360.333 45.531,360.333 45.456 C 360.333 45.380,360.146 45.131,359.917 44.902 C 359.688 44.672,359.500 44.413,359.500 44.326 C 359.500 44.238,359.378 44.167,359.228 44.167 C 359.078 44.167,358.834 44.027,358.686 43.857 C 358.538 43.687,358.248 43.494,358.042 43.429 C 357.835 43.364,357.667 43.241,357.667 43.155 C 357.667 43.070,357.517 43.000,357.333 43.000 C 357.150 43.000,357.000 42.925,357.000 42.833 C 357.000 42.742,356.813 42.667,356.583 42.667 C 356.354 42.667,356.167 42.592,356.167 42.500 C 356.167 42.408,355.942 42.333,355.667 42.333 C 355.392 42.333,355.167 42.258,355.167 42.167 C 355.167 42.075,354.754 42.000,354.250 42.000 C 353.746 42.000,353.333 41.925,353.333 41.833 C 353.333 41.731,352.528 41.667,351.250 41.667 C 349.972 41.667,349.167 41.731,349.167 41.833 M377.750 41.833 C 377.693 41.925,377.389 42.000,377.073 42.000 C 376.758 42.000,376.500 42.075,376.500 42.167 C 376.500 42.258,376.324 42.333,376.109 42.333 C 375.894 42.333,375.583 42.483,375.417 42.667 C 375.251 42.850,375.048 43.000,374.967 43.000 C 374.623 43.000,373.167 44.477,373.167 44.826 C 373.167 44.922,373.092 45.000,373.000 45.000 C 372.908 45.000,372.833 45.150,372.833 45.333 C 372.833 45.517,372.758 45.667,372.667 45.667 C 372.575 45.667,372.500 45.817,372.500 46.000 C 372.500 46.183,372.425 46.333,372.333 46.333 C 372.231 46.333,372.167 45.554,372.167 44.329 L 372.167 42.325 369.458 42.371 L 366.750 42.417 366.750 54.167 L 366.750 65.917 369.792 65.962 L 372.833 66.008 372.833 57.837 C 372.833 52.501,372.891 49.667,373.000 49.667 C 373.092 49.667,373.167 49.477,373.167 49.244 C 373.167 48.561,374.215 47.167,374.729 47.167 C 374.863 47.167,375.003 47.073,375.042 46.958 C 375.092 46.807,375.654 46.750,377.083 46.750 C 378.513 46.750,379.075 46.807,379.125 46.958 C 379.163 47.073,379.310 47.167,379.450 47.167 C 379.742 47.167,380.660 48.144,380.664 48.458 C 380.665 48.573,380.742 48.667,380.833 48.667 C 380.925 48.667,381.000 48.892,381.000 49.167 C 381.000 49.442,381.075 49.667,381.167 49.667 C 381.276 49.667,381.333 52.500,381.333 57.833 L 381.333 66.000 384.350 66.000 L 387.366 66.000 387.308 56.758 C 387.263 49.651,387.202 47.468,387.042 47.308 C 386.927 47.194,386.833 46.927,386.833 46.717 C 386.833 46.506,386.758 46.333,386.667 46.333 C 386.575 46.333,386.500 46.182,386.500 45.998 C 386.500 45.603,386.200 45.029,385.798 44.654 C 385.641 44.508,385.437 44.189,385.344 43.944 C 385.251 43.700,385.064 43.500,384.928 43.500 C 384.793 43.500,384.494 43.313,384.265 43.083 C 384.036 42.854,383.770 42.667,383.674 42.667 C 383.578 42.667,383.500 42.592,383.500 42.500 C 383.500 42.408,383.275 42.333,383.000 42.333 C 382.725 42.333,382.500 42.258,382.500 42.167 C 382.500 42.075,382.242 42.000,381.927 42.000 C 381.611 42.000,381.307 41.925,381.250 41.833 C 381.193 41.740,380.418 41.667,379.500 41.667 C 378.582 41.667,377.807 41.740,377.750 41.833 M332.750 42.167 C 332.693 42.258,332.464 42.333,332.240 42.333 C 332.016 42.333,331.833 42.408,331.833 42.500 C 331.833 42.592,331.700 42.667,331.537 42.667 C 331.374 42.667,331.132 42.817,331.000 43.000 C 330.868 43.183,330.672 43.333,330.564 43.333 C 330.275 43.333,329.333 44.261,329.333 44.546 C 329.333 44.682,329.221 44.886,329.083 45.000 C 328.946 45.114,328.833 45.311,328.833 45.437 C 328.833 45.563,328.758 45.667,328.667 45.667 C 328.575 45.667,328.500 45.817,328.500 46.000 C 328.500 46.183,328.425 46.333,328.333 46.333 C 328.231 46.333,328.167 45.556,328.167 44.333 L 328.167 42.333 325.417 42.333 L 322.667 42.333 322.667 54.167 L 322.667 66.000 325.741 66.000 L 328.816 66.000 328.866 57.555 C 328.906 50.984,328.963 49.096,329.125 49.042 C 329.240 49.003,329.333 48.828,329.333 48.653 C 329.333 48.477,329.405 48.333,329.492 48.333 C 329.580 48.333,329.839 48.146,330.068 47.917 C 330.297 47.688,330.563 47.500,330.659 47.500 C 330.755 47.500,330.833 47.425,330.833 47.333 C 330.833 47.242,331.133 47.167,331.500 47.167 C 331.867 47.167,332.167 47.092,332.167 47.000 C 332.167 46.894,333.472 46.833,335.750 46.833 L 339.333 46.833 339.333 44.417 L 339.333 42.000 336.093 42.000 C 334.113 42.000,332.813 42.065,332.750 42.167 M297.167 51.417 C 297.167 57.361,297.224 60.500,297.333 60.500 C 297.425 60.500,297.500 60.800,297.500 61.167 C 297.500 61.533,297.575 61.833,297.667 61.833 C 297.758 61.833,297.833 61.946,297.833 62.083 C 297.833 62.221,297.900 62.333,297.981 62.333 C 298.063 62.333,298.179 62.598,298.240 62.920 C 298.300 63.243,298.496 63.599,298.675 63.711 C 298.854 63.822,299.000 64.045,299.000 64.207 C 299.000 64.376,299.124 64.500,299.294 64.500 C 299.455 64.500,299.728 64.688,299.900 64.917 C 300.073 65.146,300.353 65.333,300.523 65.333 C 300.694 65.333,300.833 65.408,300.833 65.500 C 300.833 65.592,300.983 65.667,301.167 65.667 C 301.350 65.667,301.500 65.742,301.500 65.833 C 301.500 65.925,301.688 66.000,301.917 66.000 C 302.146 66.000,302.333 66.075,302.333 66.167 C 302.333 66.270,303.250 66.333,304.750 66.333 C 306.250 66.333,307.167 66.270,307.167 66.167 C 307.167 66.075,307.392 66.000,307.667 66.000 C 307.942 66.000,308.167 65.925,308.167 65.833 C 308.167 65.742,308.354 65.667,308.583 65.667 C 308.813 65.667,309.000 65.597,309.000 65.511 C 309.000 65.426,309.169 65.305,309.375 65.242 C 309.753 65.127,310.833 64.110,310.833 63.870 C 310.833 63.799,310.983 63.632,311.167 63.500 C 311.350 63.368,311.500 63.126,311.500 62.963 C 311.500 62.800,311.570 62.667,311.655 62.667 C 311.740 62.667,311.843 62.498,311.882 62.292 C 311.922 62.085,311.965 62.835,311.977 63.958 L 312.000 66.000 314.750 66.000 L 317.500 66.000 317.500 54.167 L 317.500 42.333 314.667 42.333 L 311.833 42.333 311.833 49.750 C 311.833 54.583,311.775 57.167,311.667 57.167 C 311.575 57.167,311.500 57.500,311.500 57.907 C 311.500 58.314,311.425 58.693,311.333 58.750 C 311.242 58.807,311.167 59.036,311.167 59.260 C 311.167 59.484,311.092 59.667,311.000 59.667 C 310.908 59.667,310.833 59.779,310.833 59.917 C 310.833 60.240,310.240 60.833,309.917 60.833 C 309.779 60.833,309.667 60.908,309.667 61.000 C 309.667 61.092,309.517 61.167,309.333 61.167 C 309.150 61.167,309.000 61.242,309.000 61.333 C 309.000 61.425,308.737 61.500,308.417 61.500 C 308.096 61.500,307.833 61.575,307.833 61.667 C 307.833 61.758,307.608 61.833,307.333 61.833 C 307.058 61.833,306.833 61.758,306.833 61.667 C 306.833 61.575,306.496 61.500,306.083 61.500 C 305.671 61.500,305.333 61.425,305.333 61.333 C 305.333 61.242,305.255 61.167,305.159 61.167 C 305.063 61.167,304.797 60.979,304.568 60.750 C 304.339 60.521,304.080 60.333,303.992 60.333 C 303.905 60.333,303.833 60.183,303.833 60.000 C 303.833 59.817,303.761 59.667,303.672 59.667 C 303.584 59.667,303.462 59.290,303.400 58.830 C 303.339 58.369,303.224 57.952,303.145 57.903 C 303.065 57.854,303.000 54.331,303.000 50.073 L 303.000 42.333 300.083 42.333 L 297.167 42.333 297.167 51.417 M247.250 46.661 C 247.800 46.764,248.275 46.921,248.306 47.008 C 248.336 47.095,248.432 47.167,248.519 47.167 C 248.733 47.167,249.833 48.278,249.833 48.494 C 249.833 48.589,249.908 48.667,250.000 48.667 C 250.092 48.667,250.167 48.810,250.167 48.986 C 250.167 49.162,250.233 49.331,250.314 49.361 C 250.395 49.392,250.515 49.885,250.580 50.458 L 250.699 51.500 245.516 51.500 L 240.333 51.500 240.333 50.750 C 240.333 50.337,240.408 50.000,240.500 50.000 C 240.592 50.000,240.667 49.850,240.667 49.667 C 240.667 49.483,240.742 49.333,240.833 49.333 C 240.925 49.333,241.000 49.183,241.000 49.000 C 241.000 48.817,241.075 48.667,241.167 48.667 C 241.258 48.667,241.333 48.586,241.333 48.488 C 241.333 48.390,241.427 48.212,241.542 48.092 C 241.656 47.972,241.860 47.715,241.995 47.520 C 242.130 47.326,242.374 47.167,242.537 47.167 C 242.700 47.167,242.833 47.094,242.833 47.006 C 242.833 46.917,243.210 46.795,243.670 46.734 C 244.131 46.673,244.552 46.551,244.606 46.463 C 244.713 46.291,245.666 46.362,247.250 46.661 M147.792 46.960 C 147.830 47.074,147.967 47.167,148.097 47.167 C 148.227 47.167,148.333 47.242,148.333 47.333 C 148.333 47.425,148.451 47.500,148.595 47.500 C 148.855 47.500,149.333 47.878,149.333 48.083 C 149.333 48.142,149.446 48.303,149.583 48.440 C 149.721 48.578,149.833 48.835,149.833 49.012 C 149.833 49.189,149.908 49.333,150.000 49.333 C 150.092 49.333,150.167 49.521,150.167 49.750 C 150.167 49.979,150.242 50.167,150.333 50.167 C 150.430 50.167,150.500 50.694,150.500 51.417 C 150.500 52.139,150.570 52.667,150.667 52.667 C 150.764 52.667,150.833 53.222,150.833 54.000 C 150.833 54.778,150.764 55.333,150.667 55.333 C 150.570 55.333,150.500 55.861,150.500 56.583 C 150.500 57.306,150.430 57.833,150.333 57.833 C 150.242 57.833,150.167 57.984,150.167 58.169 C 150.167 58.354,150.095 58.635,150.008 58.794 C 149.921 58.953,149.726 59.362,149.575 59.702 C 149.425 60.043,149.158 60.366,148.984 60.422 C 148.809 60.477,148.667 60.578,148.667 60.647 C 148.667 60.715,148.404 60.874,148.083 61.000 C 147.762 61.126,147.500 61.290,147.500 61.364 C 147.500 61.439,147.162 61.500,146.750 61.500 C 146.337 61.500,146.000 61.575,146.000 61.667 C 146.000 61.758,145.700 61.833,145.333 61.833 C 144.967 61.833,144.667 61.758,144.667 61.667 C 144.667 61.575,144.404 61.500,144.083 61.500 C 143.762 61.500,143.500 61.425,143.500 61.333 C 143.500 61.242,143.350 61.167,143.167 61.167 C 142.983 61.167,142.833 61.092,142.833 61.000 C 142.833 60.908,142.755 60.833,142.660 60.833 C 142.230 60.833,141.051 59.612,140.925 59.036 C 140.860 58.741,140.738 58.500,140.653 58.500 C 140.569 58.500,140.500 58.163,140.500 57.750 C 140.500 57.337,140.425 57.000,140.333 57.000 C 140.229 57.000,140.167 55.917,140.167 54.083 C 140.167 52.250,140.229 51.167,140.333 51.167 C 140.425 51.167,140.500 50.909,140.500 50.593 C 140.500 50.278,140.566 49.979,140.647 49.929 C 140.729 49.878,140.846 49.499,140.908 49.085 C 140.970 48.672,141.088 48.333,141.171 48.333 C 141.254 48.333,141.585 48.071,141.906 47.750 C 142.226 47.429,142.566 47.167,142.661 47.167 C 142.756 47.167,142.833 47.096,142.833 47.011 C 142.833 46.639,147.669 46.590,147.792 46.960 M354.144 47.141 C 354.316 47.338,354.507 47.500,354.569 47.500 C 354.729 47.500,355.500 48.291,355.500 48.456 C 355.500 48.531,355.650 48.701,355.833 48.833 C 356.025 48.971,356.167 49.265,356.167 49.523 C 356.167 49.770,356.260 50.003,356.375 50.042 C 356.534 50.095,356.583 51.054,356.583 54.083 C 356.583 57.113,356.534 58.072,356.375 58.125 C 356.260 58.163,356.167 58.376,356.167 58.597 C 356.167 58.819,356.092 59.000,356.000 59.000 C 355.908 59.000,355.833 59.115,355.833 59.257 C 355.833 59.580,354.569 60.833,354.243 60.833 C 354.109 60.833,354.000 60.908,354.000 61.000 C 354.000 61.092,353.850 61.167,353.667 61.167 C 353.483 61.167,353.333 61.242,353.333 61.333 C 353.333 61.425,352.996 61.500,352.583 61.500 C 352.171 61.500,351.833 61.575,351.833 61.667 C 351.833 61.758,351.571 61.833,351.250 61.833 C 350.929 61.833,350.667 61.758,350.667 61.667 C 350.667 61.575,350.329 61.500,349.917 61.500 C 349.504 61.500,349.167 61.425,349.167 61.333 C 349.167 61.242,349.017 61.167,348.833 61.167 C 348.650 61.167,348.500 61.092,348.500 61.000 C 348.500 60.908,348.390 60.833,348.256 60.833 C 347.930 60.833,347.000 59.912,347.000 59.589 C 347.000 59.448,346.943 59.333,346.873 59.333 C 346.652 59.333,346.167 58.022,346.167 57.425 C 346.167 57.111,346.092 56.807,346.000 56.750 C 345.793 56.622,345.773 51.557,345.978 51.430 C 346.058 51.381,346.174 50.889,346.236 50.337 C 346.299 49.785,346.421 49.333,346.508 49.333 C 346.595 49.333,346.667 49.200,346.667 49.037 C 346.667 48.874,346.817 48.632,347.000 48.500 C 347.183 48.368,347.333 48.164,347.333 48.047 C 347.333 47.929,347.429 47.833,347.547 47.833 C 347.664 47.833,347.868 47.683,348.000 47.500 C 348.132 47.317,348.374 47.167,348.537 47.167 C 348.700 47.167,348.833 47.097,348.833 47.011 C 348.833 46.506,353.697 46.625,354.144 47.141 M174.167 57.083 C 174.167 57.917,174.098 58.500,174.000 58.500 C 173.908 58.500,173.833 58.762,173.833 59.083 C 173.833 59.404,173.763 59.667,173.678 59.667 C 173.592 59.667,173.470 59.832,173.406 60.034 C 173.255 60.508,172.926 60.833,172.595 60.833 C 172.451 60.833,172.333 60.908,172.333 61.000 C 172.333 61.092,172.221 61.167,172.083 61.167 C 171.946 61.167,171.833 61.242,171.833 61.333 C 171.833 61.425,171.608 61.500,171.333 61.500 C 171.058 61.500,170.833 61.575,170.833 61.667 C 170.833 61.765,170.222 61.833,169.333 61.833 C 168.444 61.833,167.833 61.765,167.833 61.667 C 167.833 61.575,167.625 61.500,167.370 61.500 C 167.098 61.500,166.808 61.362,166.667 61.167 C 166.535 60.983,166.363 60.833,166.285 60.833 C 166.084 60.833,165.667 60.391,165.667 60.179 C 165.667 60.080,165.592 60.000,165.500 60.000 C 165.408 60.000,165.333 59.587,165.333 59.083 C 165.333 58.579,165.408 58.167,165.500 58.167 C 165.592 58.167,165.667 58.047,165.667 57.900 C 165.667 57.545,166.622 56.667,167.008 56.667 C 167.176 56.667,167.360 56.592,167.417 56.500 C 167.473 56.408,167.778 56.333,168.093 56.333 C 168.409 56.333,168.667 56.258,168.667 56.167 C 168.667 56.070,169.194 56.000,169.917 56.000 C 170.639 56.000,171.167 55.930,171.167 55.833 C 171.167 55.735,171.778 55.667,172.667 55.667 L 174.167 55.667 174.167 57.083 M30.167 59.500 C 30.167 59.592,29.979 59.667,29.750 59.667 C 29.521 59.667,29.333 59.742,29.333 59.833 C 29.333 59.925,29.183 60.000,29.000 60.000 C 28.817 60.000,28.667 60.075,28.667 60.167 C 28.667 60.258,28.554 60.333,28.416 60.333 C 28.278 60.333,25.203 63.296,21.583 66.916 L 15.000 73.499 15.000 74.665 L 15.000 75.830 18.576 79.415 C 20.543 81.387,22.268 83.000,22.409 83.000 C 22.551 83.000,22.667 83.075,22.667 83.167 C 22.667 83.259,23.111 83.333,23.667 83.333 C 24.222 83.333,24.667 83.259,24.667 83.167 C 24.667 83.075,24.783 83.000,24.926 83.000 C 25.069 83.000,29.424 78.762,34.605 73.583 C 39.785 68.404,44.131 64.167,44.262 64.167 C 44.393 64.167,44.500 64.092,44.500 64.000 C 44.500 63.908,44.837 63.833,45.250 63.833 C 45.663 63.833,46.000 63.908,46.000 64.000 C 46.000 64.092,46.107 64.167,46.238 64.167 C 46.368 64.167,50.712 68.404,55.891 73.583 C 61.070 78.762,65.425 83.000,65.570 83.000 C 65.715 83.000,65.833 83.075,65.833 83.167 C 65.833 83.259,66.278 83.333,66.833 83.333 C 67.389 83.333,67.833 83.259,67.833 83.167 C 67.833 83.075,67.947 83.000,68.085 83.000 C 68.224 83.000,69.949 81.389,71.918 79.421 L 75.500 75.841 75.500 74.665 L 75.500 73.489 68.918 66.911 C 65.298 63.293,62.223 60.333,62.085 60.333 C 61.947 60.333,61.833 60.258,61.833 60.167 C 61.833 60.075,61.683 60.000,61.500 60.000 C 61.317 60.000,61.167 59.925,61.167 59.833 C 61.167 59.742,60.979 59.667,60.750 59.667 C 60.521 59.667,60.333 59.592,60.333 59.500 C 60.333 59.390,55.194 59.333,45.250 59.333 C 35.306 59.333,30.167 59.390,30.167 59.500 " stroke="none" fill="#040404" fill-rule="evenodd"></path><path id="path2" d="" stroke="none" fill="#1002804" fill-rule="evenodd"></path><path id="path3" d="" stroke="none" fill="#442804" fill-rule="evenodd"></path><path id="path4" d="" stroke="none" fill="#042c04" fill-rule="evenodd"></path></g></svg>